<svg width="25" height="25" viewBox="0 0 25 25" fill="none" xmlns="http://www.w3.org/2000/svg">
<g clip-path="url(#clip0_50_1906)">
<path d="M16.6666 20.8942C18.2841 20.5959 19.7083 20.1171 20.582 19.7854C21.3862 19.4804 21.9003 18.7325 21.9445 17.8963C22.0037 16.7796 22.0833 14.7171 22.0833 11.7084C22.0833 8.8317 22.0108 6.82003 21.9528 5.67253C21.902 4.66587 20.8912 4.0742 19.9987 4.38753C18.9075 4.76945 17.7949 5.08708 16.6666 5.33878V20.8942ZM15.4166 5.3917C14.0583 4.88837 12.7378 4.54337 11.7249 4.3192C11.2666 4.21754 10.8059 4.12696 10.3433 4.04753C10.229 4.02797 10.1145 4.00935 9.99992 3.9917V19.5042C11.3237 19.7075 12.6316 20.0575 13.642 20.3704C14.1908 20.5404 14.6478 20.6979 14.967 20.8129C15.1175 20.867 15.2673 20.9227 15.4166 20.98V5.3917ZM4.8345 5.21462C5.70825 4.88253 7.13242 4.40378 8.74992 4.10545V19.6609C7.62135 19.9116 6.5087 20.2293 5.41784 20.6121C4.52534 20.9254 3.51492 20.3338 3.46367 19.3271C3.40575 18.18 3.33325 16.1679 3.33325 13.2917C3.33325 10.2829 3.41242 8.22003 3.47159 7.10337C3.51575 6.26712 4.03075 5.51962 4.8345 5.21462Z" fill="#14473B"/>
</g>
<defs>
<clipPath id="clip0_50_1906">
<rect width="20" height="20" fill="white" transform="translate(2.5 2.5)"/>
</clipPath>
</defs>
</svg>
