<svg width="25" height="25" viewBox="0 0 25 25" fill="none" xmlns="http://www.w3.org/2000/svg">
<g clip-path="url(#clip0_50_674)">
<path d="M21.6358 9.5H16.3538C15.8818 9.5 15.4998 9.057 15.4998 8.511V8.49C15.4998 7.944 15.8818 7.501 16.3538 7.501H21.6358C22.1118 7.501 22.4998 7.951 22.4998 8.501C22.4998 9.051 22.1118 9.501 21.6358 9.501V9.5ZM21.6358 13.5H16.3538C15.8818 13.5 15.4998 13.057 15.4998 12.511V12.489C15.4998 11.943 15.8818 11.5 16.3538 11.5H21.6358C22.1118 11.5 22.4998 11.95 22.4998 12.5C22.4998 13.05 22.1118 13.5 21.6358 13.5ZM21.6578 17.5H18.3308C17.8708 17.5 17.4998 17.057 17.4998 16.511V16.489C17.4998 15.943 17.8718 15.5 18.3308 15.5H21.6578C22.1208 15.5 22.4998 15.95 22.4998 16.5C22.4998 17.05 22.1208 17.5 21.6578 17.5ZM9.49976 12.5C8.43889 12.5 7.42147 12.0786 6.67133 11.3284C5.92118 10.5783 5.49976 9.56087 5.49976 8.5C5.49976 7.43913 5.92118 6.42172 6.67133 5.67157C7.42147 4.92143 8.43889 4.5 9.49976 4.5C10.5606 4.5 11.578 4.92143 12.3282 5.67157C13.0783 6.42172 13.4998 7.43913 13.4998 8.5C13.4998 9.56087 13.0783 10.5783 12.3282 11.3284C11.578 12.0786 10.5606 12.5 9.49976 12.5ZM3.46976 20.573C2.88676 20.573 2.42176 20.055 2.50976 19.48C2.76984 17.8132 3.61733 16.2944 4.8992 15.1977C6.18106 14.1011 7.8128 13.4989 9.49976 13.5C11.1865 13.4992 12.818 14.1014 14.0997 15.198C15.3814 16.2947 16.2287 17.8134 16.4888 19.48C16.5788 20.055 16.1128 20.573 15.5308 20.573H3.46976Z" fill="white"/>
</g>
<defs>
<clipPath id="clip0_50_674">
<rect width="25" height="25" fill="white"/>
</clipPath>
</defs>
</svg>
