<svg width="25" height="25" viewBox="0 0 25 25" fill="none" xmlns="http://www.w3.org/2000/svg">
<g clip-path="url(#clip0_50_1893)">
<path d="M21.636 9.5H16.354C15.882 9.5 15.5 9.057 15.5 8.511V8.49C15.5 7.944 15.882 7.501 16.354 7.501H21.636C22.112 7.501 22.5 7.951 22.5 8.501C22.5 9.051 22.112 9.501 21.636 9.501V9.5ZM21.636 13.5H16.354C15.882 13.5 15.5 13.057 15.5 12.511V12.489C15.5 11.943 15.882 11.5 16.354 11.5H21.636C22.112 11.5 22.5 11.95 22.5 12.5C22.5 13.05 22.112 13.5 21.636 13.5ZM21.658 17.5H18.331C17.871 17.5 17.5 17.057 17.5 16.511V16.489C17.5 15.943 17.872 15.5 18.331 15.5H21.658C22.121 15.5 22.5 15.95 22.5 16.5C22.5 17.05 22.121 17.5 21.658 17.5ZM9.5 12.5C8.43913 12.5 7.42172 12.0786 6.67157 11.3284C5.92143 10.5783 5.5 9.56087 5.5 8.5C5.5 7.43913 5.92143 6.42172 6.67157 5.67157C7.42172 4.92143 8.43913 4.5 9.5 4.5C10.5609 4.5 11.5783 4.92143 12.3284 5.67157C13.0786 6.42172 13.5 7.43913 13.5 8.5C13.5 9.56087 13.0786 10.5783 12.3284 11.3284C11.5783 12.0786 10.5609 12.5 9.5 12.5ZM3.47 20.573C2.887 20.573 2.422 20.055 2.51 19.48C2.77008 17.8132 3.61758 16.2944 4.89944 15.1977C6.18131 14.1011 7.81305 13.4989 9.5 13.5C11.1868 13.4992 12.8183 14.1014 14.0999 15.198C15.3816 16.2947 16.2289 17.8134 16.489 19.48C16.579 20.055 16.113 20.573 15.531 20.573H3.47Z" fill="#14473B"/>
</g>
<defs>
<clipPath id="clip0_50_1893">
<rect width="25" height="25" fill="white"/>
</clipPath>
</defs>
</svg>
