<svg width="25" height="25" viewBox="0 0 25 25" fill="none" xmlns="http://www.w3.org/2000/svg">
<g clip-path="url(#clip0_50_680)">
<path d="M12.5 10.5C13.5609 10.5 14.5783 10.0786 15.3284 9.32843C16.0786 8.57828 16.5 7.56087 16.5 6.5C16.5 5.43913 16.0786 4.42172 15.3284 3.67157C14.5783 2.92143 13.5609 2.5 12.5 2.5C11.4391 2.5 10.4217 2.92143 9.67157 3.67157C8.92143 4.42172 8.5 5.43913 8.5 6.5C8.5 7.56087 8.92143 8.57828 9.67157 9.32843C10.4217 10.0786 11.4391 10.5 12.5 10.5ZM6 13.5C6.66304 13.5 7.29893 13.2366 7.76777 12.7678C8.23661 12.2989 8.5 11.663 8.5 11C8.5 10.337 8.23661 9.70107 7.76777 9.23223C7.29893 8.76339 6.66304 8.5 6 8.5C5.33696 8.5 4.70107 8.76339 4.23223 9.23223C3.76339 9.70107 3.5 10.337 3.5 11C3.5 11.663 3.76339 12.2989 4.23223 12.7678C4.70107 13.2366 5.33696 13.5 6 13.5ZM21.5 11C21.5 11.663 21.2366 12.2989 20.7678 12.7678C20.2989 13.2366 19.663 13.5 19 13.5C18.337 13.5 17.7011 13.2366 17.2322 12.7678C16.7634 12.2989 16.5 11.663 16.5 11C16.5 10.337 16.7634 9.70107 17.2322 9.23223C17.7011 8.76339 18.337 8.5 19 8.5C19.663 8.5 20.2989 8.76339 20.7678 9.23223C21.2366 9.70107 21.5 10.337 21.5 11ZM12.5 11.5C13.8261 11.5 15.0979 12.0268 16.0355 12.9645C16.9732 13.9021 17.5 15.1739 17.5 16.5V22.5H7.5V16.5C7.5 15.1739 8.02678 13.9021 8.96447 12.9645C9.90215 12.0268 11.1739 11.5 12.5 11.5ZM5.5 16.5C5.5 15.807 5.6 15.138 5.788 14.506L5.618 14.52C4.76088 14.6141 3.96866 15.0213 3.39326 15.6635C2.81786 16.3057 2.49978 17.1377 2.5 18V22.5H5.5V16.5ZM22.5 22.5V18C22.5001 17.1084 22.1599 16.2503 21.5489 15.601C20.9378 14.9516 20.102 14.56 19.212 14.506C19.399 15.138 19.5 15.807 19.5 16.5V22.5H22.5Z" fill="white"/>
</g>
<defs>
<clipPath id="clip0_50_680">
<rect width="25" height="25" fill="white"/>
</clipPath>
</defs>
</svg>
