<svg width="25" height="25" viewBox="0 0 25 25" fill="none" xmlns="http://www.w3.org/2000/svg">
<g clip-path="url(#clip0_50_677)">
<path d="M10.5 2.5H14.5C15.0304 2.5 15.5391 2.71071 15.9142 3.08579C16.2893 3.46086 16.5 3.96957 16.5 4.5V6.5H20.5C21.0304 6.5 21.5391 6.71071 21.9142 7.08579C22.2893 7.46086 22.5 7.96957 22.5 8.5V19.5C22.5 20.0304 22.2893 20.5391 21.9142 20.9142C21.5391 21.2893 21.0304 21.5 20.5 21.5H4.5C3.96957 21.5 3.46086 21.2893 3.08579 20.9142C2.71071 20.5391 2.5 20.0304 2.5 19.5V8.5C2.5 7.39 3.39 6.5 4.5 6.5H8.5V4.5C8.5 3.39 9.39 2.5 10.5 2.5ZM14.5 6.5V4.5H10.5V6.5H14.5Z" fill="white"/>
</g>
<defs>
<clipPath id="clip0_50_677">
<rect width="25" height="25" fill="white"/>
</clipPath>
</defs>
</svg>
