<svg width="25" height="25" viewBox="0 0 25 25" fill="none" xmlns="http://www.w3.org/2000/svg">
<g clip-path="url(#clip0_50_665)">
<path d="M16.6668 20.8942C18.2843 20.5959 19.7085 20.1171 20.5822 19.7854C21.3864 19.4804 21.9006 18.7325 21.9447 17.8963C22.0039 16.7796 22.0835 14.7171 22.0835 11.7084C22.0835 8.8317 22.011 6.82003 21.9531 5.67253C21.9022 4.66587 20.8914 4.0742 19.9989 4.38753C18.9078 4.76945 17.7952 5.08708 16.6668 5.33878V20.8942ZM15.4168 5.3917C14.0585 4.88837 12.7381 4.54337 11.7252 4.3192C11.2669 4.21754 10.8062 4.12696 10.3435 4.04753C10.2292 4.02797 10.1148 4.00935 10.0002 3.9917V19.5042C11.3239 19.7075 12.6318 20.0575 13.6422 20.3704C14.191 20.5404 14.6481 20.6979 14.9672 20.8129C15.1177 20.867 15.2676 20.9227 15.4168 20.98V5.3917ZM4.83475 5.21462C5.7085 4.88253 7.13266 4.40378 8.75016 4.10545V19.6609C7.6216 19.9116 6.50894 20.2293 5.41808 20.6121C4.52558 20.9254 3.51516 20.3338 3.46391 19.3271C3.406 18.18 3.3335 16.1679 3.3335 13.2917C3.3335 10.2829 3.41266 8.22003 3.47183 7.10337C3.516 6.26712 4.031 5.51962 4.83475 5.21462Z" fill="white"/>
</g>
<defs>
<clipPath id="clip0_50_665">
<rect width="20" height="20" fill="white" transform="translate(2.5 2.5)"/>
</clipPath>
</defs>
</svg>
