<svg width="25" height="25" viewBox="0 0 25 25" fill="none" xmlns="http://www.w3.org/2000/svg">
<path d="M14.0278 12.3788L11.902 10.2534C11.8584 10.2097 11.8067 10.175 11.7497 10.1514C11.6927 10.1277 11.6316 10.1155 11.5699 10.1155C11.5083 10.1155 11.4472 10.1277 11.3902 10.1514C11.3332 10.175 11.2815 10.2097 11.2379 10.2534L3.01877 18.0077C2.9732 18.0507 2.93669 18.1023 2.91142 18.1597C2.88615 18.217 2.87262 18.2788 2.87164 18.3414C2.87066 18.404 2.88224 18.4662 2.9057 18.5243C2.92916 18.5824 2.96402 18.6352 3.00823 18.6796L5.58831 21.2686C5.6326 21.3131 5.68535 21.3481 5.74345 21.3718C5.80155 21.3955 5.86381 21.4072 5.92653 21.4064C5.98926 21.4056 6.05118 21.3921 6.10863 21.3669C6.16607 21.3417 6.21787 21.3052 6.26096 21.2596L14.027 13.0425C14.0707 12.999 14.1054 12.9473 14.129 12.8904C14.1527 12.8335 14.165 12.7724 14.165 12.7108C14.1651 12.6491 14.153 12.5881 14.1295 12.5311C14.1059 12.4741 14.0713 12.4224 14.0278 12.3788ZM22.0375 10.13L20.3231 8.42762C20.2447 8.34946 20.1515 8.28761 20.0491 8.24564C19.9467 8.20367 19.8369 8.18241 19.7262 8.18308C19.5468 8.18328 19.3721 8.23985 19.2266 8.3448C19.2266 8.32801 19.2289 8.3116 19.2301 8.29715C19.2477 8.04324 19.275 7.65965 19.027 7.31199C18.7321 6.91449 18.4083 6.53926 18.0582 6.18933C18.0573 6.1882 18.0562 6.18715 18.0551 6.18621C17.5348 5.67371 16.4024 4.70847 14.6676 4.00105C14.0094 3.73125 13.3047 3.59285 12.5934 3.59363C11.3606 3.59363 10.4231 4.14988 10.0641 4.47957C9.71059 4.80213 9.47875 5.23644 9.40745 5.70965L10.0324 6.09363C10.0324 6.09363 10.3473 6.01551 10.5739 5.96121C10.8105 5.91071 11.0534 5.89557 11.2946 5.91629C11.8098 5.95887 12.4192 6.21472 12.6887 6.42762C13.1457 6.79519 13.3657 7.29051 13.402 8.03269C13.4098 8.19793 13.0301 8.86668 12.4582 9.58894C12.4107 9.64899 12.3868 9.72442 12.3912 9.8009C12.3956 9.87738 12.4279 9.94958 12.4821 10.0038L14.2543 11.7761C14.3111 11.8323 14.3873 11.8647 14.4672 11.8665C14.5471 11.8683 14.6247 11.8395 14.684 11.7858C15.1555 11.3561 15.875 10.6921 16.0383 10.5909C16.3387 10.4061 16.5535 10.3706 16.6125 10.3643C16.7656 10.3494 16.9195 10.3818 17.0535 10.4573C17.0542 10.464 17.0535 10.4707 17.0514 10.4771C17.0493 10.4835 17.0459 10.4894 17.0414 10.4944L16.9703 10.562L16.9586 10.5729C16.8801 10.6512 16.8178 10.7442 16.7753 10.8467C16.7329 10.9491 16.7111 11.0589 16.7113 11.1698C16.7115 11.2807 16.7336 11.3905 16.7764 11.4928C16.8192 11.5951 16.8818 11.6879 16.9606 11.7659L18.6774 13.4721C18.7359 13.5304 18.8151 13.563 18.8977 13.563C18.9802 13.563 19.0594 13.5304 19.118 13.4721L22.0352 10.5737C22.0646 10.5448 22.0881 10.5104 22.1041 10.4724C22.1202 10.4344 22.1286 10.3936 22.1288 10.3523C22.129 10.3111 22.1211 10.2702 22.1054 10.232C22.0897 10.1938 22.0667 10.1592 22.0375 10.13Z" fill="white"/>
</svg>
