<svg width="190" height="79" viewBox="0 0 190 79" fill="none" xmlns="http://www.w3.org/2000/svg">
<rect x="7.09999" y="6.82711" width="175.383" height="64.7231" rx="13.6541" stroke="white" stroke-width="5.46163"/>
<path d="M154.971 55.0883H160.308C161.912 55.0883 163.04 54.7625 163.691 54.111C164.393 53.4093 164.744 52.2566 164.744 50.6529V27.7242C164.744 26.1205 164.393 24.9928 163.691 24.3413C163.04 23.6396 161.912 23.2888 160.308 23.2888H154.971C153.367 23.2888 152.239 23.6396 151.588 24.3413C150.936 24.9928 150.611 26.1205 150.611 27.7242V50.6529C150.611 52.2566 150.936 53.4093 151.588 54.111C152.239 54.7625 153.367 55.0883 154.971 55.0883ZM161.887 63.3576H153.467C149.508 63.3576 146.451 62.3052 144.296 60.2002C142.141 58.0953 141.063 55.0632 141.063 51.1039V27.2732C141.063 23.3139 142.141 20.2818 144.296 18.1769C146.451 16.0719 149.508 15.0195 153.467 15.0195H161.887C165.846 15.0195 168.903 16.0719 171.058 18.1769C173.213 20.2818 174.291 23.3139 174.291 27.2732V51.1039C174.291 55.0632 173.213 58.0953 171.058 60.2002C168.903 62.3052 165.846 63.3576 161.887 63.3576Z" fill="white"/>
<path d="M105.658 63.3576H99.4185C98.3661 63.3576 97.8398 62.8314 97.8398 61.7789V16.5982C97.8398 15.5457 98.3661 15.0195 99.4185 15.0195H105.057C106.109 15.0195 106.811 15.3703 107.162 16.0719L122.347 44.5636H122.648V16.5982C122.648 15.5457 123.174 15.0195 124.227 15.0195H130.466C131.519 15.0195 132.045 15.5457 132.045 16.5982V61.7789C132.045 62.8314 131.519 63.3576 130.466 63.3576H124.978C123.876 63.3576 123.074 62.8565 122.573 61.8541L107.538 33.8886H107.237V61.7789C107.237 62.8314 106.711 63.3576 105.658 63.3576Z" fill="white"/>
<path d="M80.5067 15.0195H86.8215C87.9241 15.0195 88.4754 15.5206 88.4754 16.523V51.1039C88.4754 55.0131 87.3728 58.0452 85.1676 60.2002C83.0126 62.3052 79.9805 63.3576 76.0713 63.3576H67.802C63.8427 63.3576 60.7856 62.3052 58.6305 60.2002C56.4755 58.0953 55.3979 55.0632 55.3979 51.1039V16.5982C55.3979 15.5457 55.9242 15.0195 56.9766 15.0195H63.3666C64.4191 15.0195 64.9453 15.5457 64.9453 16.5982V50.6529C64.9453 52.2566 65.2711 53.4093 65.9226 54.111C66.6242 54.7625 67.7519 55.0883 69.3055 55.0883H74.4926C76.0964 55.0883 77.224 54.7625 77.8756 54.111C78.5772 53.4093 78.928 52.2566 78.928 50.6529V16.5982C78.928 15.5457 79.4543 15.0195 80.5067 15.0195Z" fill="white"/>
<path d="M15.2927 61.7789V57.2684C15.2927 55.6145 15.6185 54.3866 16.27 53.5847L36.1916 24.1909V23.8902H18.2246C17.1721 23.8902 16.6459 23.364 16.6459 22.3115V16.5982C16.6459 15.5457 17.1721 15.0195 18.2246 15.0195H44.9121C45.9144 15.0195 46.4156 15.5457 46.4156 16.5982V23.0633C46.4156 24.5668 46.0397 25.8699 45.2879 26.9724L26.5691 54.1861V54.4869H45.6638C46.6662 54.4869 47.1673 54.963 47.1673 55.9152V61.6286C47.1673 62.7813 46.6662 63.3576 45.6638 63.3576H16.8714C15.819 63.3576 15.2927 62.8314 15.2927 61.7789Z" fill="white"/>
</svg>
