<svg width="695" height="287" viewBox="0 0 695 287" fill="none" xmlns="http://www.w3.org/2000/svg">
<rect x="26" y="25" width="642.238" height="237.01" rx="50" stroke="#2B5F4C" stroke-width="20"/>
<path d="M567.489 201.728H587.034C592.907 201.728 597.036 200.535 599.422 198.149C601.991 195.58 603.276 191.359 603.276 185.486V101.523C603.276 95.6507 601.991 91.5213 599.422 89.1355C597.036 86.5662 592.907 85.2815 587.034 85.2815H567.489C561.616 85.2815 557.487 86.5662 555.101 89.1355C552.715 91.5213 551.522 95.6507 551.522 101.523V185.486C551.522 191.359 552.715 195.58 555.101 198.149C557.487 200.535 561.616 201.728 567.489 201.728ZM592.815 232.01H561.983C547.485 232.01 536.289 228.156 528.398 220.448C520.506 212.74 516.561 201.636 516.561 187.138V99.8717C516.561 85.3733 520.506 74.27 528.398 66.562C536.289 58.8539 547.485 54.9999 561.983 54.9999H592.815C607.314 54.9999 618.509 58.8539 626.4 66.562C634.292 74.27 638.238 85.3733 638.238 99.8717V187.138C638.238 201.636 634.292 212.74 626.4 220.448C618.509 228.156 607.314 232.01 592.815 232.01Z" fill="#2B5F4C"/>
<path d="M386.91 232.01H364.062C360.208 232.01 358.281 230.083 358.281 226.229V60.7809C358.281 56.9269 360.208 54.9999 364.062 54.9999H384.708C388.562 54.9999 391.131 56.2846 392.416 58.8539L448.024 163.188H449.125V60.7809C449.125 56.9269 451.052 54.9999 454.906 54.9999H477.755C481.609 54.9999 483.536 56.9269 483.536 60.7809V226.229C483.536 230.083 481.609 232.01 477.755 232.01H457.659C453.622 232.01 450.685 230.175 448.85 226.504L393.793 124.097H392.691V226.229C392.691 230.083 390.764 232.01 386.91 232.01Z" fill="#2B5F4C"/>
<path d="M294.808 54.9999H317.932C321.969 54.9999 323.988 56.8351 323.988 60.5056V187.138C323.988 201.453 319.951 212.556 311.875 220.448C303.984 228.156 292.881 232.01 278.566 232.01H248.284C233.786 232.01 222.591 228.156 214.699 220.448C206.807 212.74 202.862 201.636 202.862 187.138V60.7809C202.862 56.9269 204.789 54.9999 208.643 54.9999H232.042C235.896 54.9999 237.823 56.9269 237.823 60.7809V185.486C237.823 191.359 239.016 195.58 241.402 198.149C243.971 200.535 248.101 201.728 253.79 201.728H272.785C278.657 201.728 282.787 200.535 285.173 198.149C287.742 195.58 289.027 191.359 289.027 185.486V60.7809C289.027 56.9269 290.954 54.9999 294.808 54.9999Z" fill="#2B5F4C"/>
<path d="M55.9999 226.229V209.711C55.9999 203.655 57.1928 199.159 59.5786 196.222L132.53 88.5849V87.4838H66.7361C62.8821 87.4838 60.955 85.5568 60.955 81.7028V60.7809C60.955 56.9269 62.8821 54.9999 66.7361 54.9999H164.463C168.134 54.9999 169.969 56.9269 169.969 60.7809V84.4556C169.969 89.9614 168.592 94.733 165.84 98.7706L97.293 198.425V199.526H167.216C170.887 199.526 172.722 201.269 172.722 204.756V225.678C172.722 229.899 170.887 232.01 167.216 232.01H61.7809C57.9269 232.01 55.9999 230.083 55.9999 226.229Z" fill="#2B5F4C"/>
</svg>
