<svg width="25" height="25" viewBox="0 0 25 25" fill="none" xmlns="http://www.w3.org/2000/svg">
<path d="M14.5 9.5C14.2167 9.5 13.9793 9.404 13.788 9.212C13.5967 9.02 13.5007 8.78267 13.5 8.5V4.5C13.5 4.21667 13.596 3.97933 13.788 3.788C13.98 3.59667 14.2173 3.50067 14.5 3.5H20.5C20.7833 3.5 21.021 3.596 21.213 3.788C21.405 3.98 21.5007 4.21733 21.5 4.5V8.5C21.5 8.78333 21.404 9.021 21.212 9.213C21.02 9.405 20.7827 9.50067 20.5 9.5H14.5ZM4.5 13.5C4.21667 13.5 3.97933 13.404 3.788 13.212C3.59667 13.02 3.50067 12.7827 3.5 12.5V4.5C3.5 4.21667 3.596 3.97933 3.788 3.788C3.98 3.59667 4.21733 3.50067 4.5 3.5H10.5C10.7833 3.5 11.021 3.596 11.213 3.788C11.405 3.98 11.5007 4.21733 11.5 4.5V12.5C11.5 12.7833 11.404 13.021 11.212 13.213C11.02 13.405 10.7827 13.5007 10.5 13.5H4.5ZM14.5 21.5C14.2167 21.5 13.9793 21.404 13.788 21.212C13.5967 21.02 13.5007 20.7827 13.5 20.5V12.5C13.5 12.2167 13.596 11.9793 13.788 11.788C13.98 11.5967 14.2173 11.5007 14.5 11.5H20.5C20.7833 11.5 21.021 11.596 21.213 11.788C21.405 11.98 21.5007 12.2173 21.5 12.5V20.5C21.5 20.7833 21.404 21.021 21.212 21.213C21.02 21.405 20.7827 21.5007 20.5 21.5H14.5ZM4.5 21.5C4.21667 21.5 3.97933 21.404 3.788 21.212C3.59667 21.02 3.50067 20.7827 3.5 20.5V16.5C3.5 16.2167 3.596 15.9793 3.788 15.788C3.98 15.5967 4.21733 15.5007 4.5 15.5H10.5C10.7833 15.5 11.021 15.596 11.213 15.788C11.405 15.98 11.5007 16.2173 11.5 16.5V20.5C11.5 20.7833 11.404 21.021 11.212 21.213C11.02 21.405 10.7827 21.5007 10.5 21.5H4.5Z" fill="white"/>
</svg>
