<svg width="25" height="25" viewBox="0 0 25 25" fill="none" xmlns="http://www.w3.org/2000/svg">
<path d="M14.0275 12.3788L11.9017 10.2534C11.8582 10.2097 11.8064 10.175 11.7495 10.1514C11.6925 10.1277 11.6314 10.1155 11.5697 10.1155C11.508 10.1155 11.4469 10.1277 11.3899 10.1514C11.333 10.175 11.2812 10.2097 11.2377 10.2534L3.01853 18.0077C2.97295 18.0507 2.93645 18.1023 2.91118 18.1597C2.88591 18.217 2.87238 18.2788 2.8714 18.3414C2.87041 18.404 2.88199 18.4662 2.90545 18.5243C2.92891 18.5824 2.96378 18.6352 3.00798 18.6796L5.58806 21.2686C5.63235 21.3131 5.68511 21.3481 5.74321 21.3718C5.80131 21.3955 5.86356 21.4072 5.92629 21.4064C5.98902 21.4056 6.05094 21.3921 6.10838 21.3669C6.16583 21.3417 6.21763 21.3052 6.26072 21.2596L14.0267 13.0425C14.0704 12.999 14.1051 12.9473 14.1288 12.8904C14.1525 12.8335 14.1647 12.7724 14.1648 12.7108C14.1649 12.6491 14.1528 12.5881 14.1292 12.5311C14.1057 12.4741 14.0711 12.4224 14.0275 12.3788ZM22.0373 10.13L20.3228 8.42762C20.2444 8.34946 20.1513 8.28761 20.0489 8.24564C19.9464 8.20367 19.8367 8.18241 19.726 8.18308C19.5466 8.18328 19.3718 8.23985 19.2263 8.3448C19.2263 8.32801 19.2287 8.3116 19.2299 8.29715C19.2474 8.04324 19.2748 7.65965 19.0267 7.31199C18.7318 6.91449 18.408 6.53926 18.058 6.18933C18.057 6.1882 18.056 6.18715 18.0549 6.18621C17.5345 5.67371 16.4021 4.70847 14.6674 4.00105C14.0091 3.73125 13.3045 3.59285 12.5931 3.59363C11.3603 3.59363 10.4228 4.14988 10.0638 4.47957C9.71034 4.80213 9.4785 5.23644 9.4072 5.70965L10.0322 6.09363C10.0322 6.09363 10.347 6.01551 10.5736 5.96121C10.8103 5.91071 11.0532 5.89557 11.2943 5.91629C11.8095 5.95887 12.4189 6.21472 12.6885 6.42762C13.1455 6.79519 13.3654 7.29051 13.4017 8.03269C13.4095 8.19793 13.0299 8.86668 12.458 9.58894C12.4104 9.64899 12.3866 9.72442 12.391 9.8009C12.3954 9.87738 12.4277 9.94958 12.4818 10.0038L14.2541 11.7761C14.3109 11.8323 14.387 11.8647 14.467 11.8665C14.5469 11.8683 14.6245 11.8395 14.6838 11.7858C15.1552 11.3561 15.8748 10.6921 16.0381 10.5909C16.3385 10.4061 16.5533 10.3706 16.6123 10.3643C16.7653 10.3494 16.9193 10.3818 17.0533 10.4573C17.054 10.464 17.0532 10.4707 17.0511 10.4771C17.0491 10.4835 17.0457 10.4894 17.0412 10.4944L16.9701 10.562L16.9584 10.5729C16.8798 10.6512 16.8175 10.7442 16.7751 10.8467C16.7326 10.9491 16.7109 11.0589 16.7111 11.1698C16.7112 11.2807 16.7334 11.3905 16.7761 11.4928C16.8189 11.5951 16.8815 11.6879 16.9603 11.7659L18.6771 13.4721C18.7357 13.5304 18.8149 13.563 18.8974 13.563C18.98 13.563 19.0592 13.5304 19.1178 13.4721L22.0349 10.5737C22.0644 10.5448 22.0878 10.5104 22.1039 10.4724C22.1199 10.4344 22.1283 10.3936 22.1285 10.3523C22.1288 10.3111 22.1208 10.2702 22.1051 10.232C22.0895 10.1938 22.0664 10.1592 22.0373 10.13Z" fill="#14473B"/>
</svg>
